<svg width="40" height="40" viewBox="0 0 40 40" fill="none" xmlns="http://www.w3.org/2000/svg">
  <!-- Livro -->
  <path d="M8 10C8 8.89543 8.89543 8 10 8H24C25.1046 8 26 8.89543 26 10V28C26 29.1046 25.1046 30 24 30H10C8.89543 30 8 29.1046 8 28V10Z" fill="#667eea" stroke="white" stroke-width="1.5"/>
  
  <!-- Páginas do livro -->
  <line x1="12" y1="12" x2="22" y2="12" stroke="white" stroke-width="1.5"/>
  <line x1="12" y1="16" x2="22" y2="16" stroke="white" stroke-width="1.5"/>
  <line x1="12" y1="20" x2="22" y2="20" stroke="white" stroke-width="1.5"/>
  <line x1="12" y1="24" x2="22" y2="24" stroke="white" stroke-width="1.5"/>
  
  <!-- Lâmpada de ideia -->
  <circle cx="30" cy="16" r="5" fill="#764ba2" stroke="white" stroke-width="1.5"/>
  <path d="M28 22C28 22 27 24 27 25C27 26.1046 27.8954 27 29 27H31C32.1046 27 33 26.1046 33 25C33 24 32 22 32 22" fill="#764ba2" stroke="white" stroke-width="1.5"/>
  <line x1="28" y1="27" x2="32" y2="27" stroke="white" stroke-width="1.5"/>
  
  <!-- Estrela pequena (destaque) -->
  <path d="M22 14L23 16L25 16L23.5 17.5L24 19L22 17.5L20 19L20.5 17.5L19 16L21 16L22 14Z" fill="#FFD700" stroke="white" stroke-width="0.5"/>
</svg>
